<svg width="405" height="265" viewBox="0 0 405 265" fill="none" xmlns="http://www.w3.org/2000/svg">
<g clip-path="url(#clip0_6_2)">
<path d="M100.364 15.1212L89.3531 45.9125C83.5734 62.3853 77.0344 81.7724 67.7109 110.494L88.8047 21.3301L71.7188 15.1634L21.7266 153.239L33.75 157.885L44.7188 127.136C50.4984 111.297 56.6578 92.6698 66.3188 62.8499L45.225 151.549L62.1 157.758L112.556 19.7673L100.364 15.1212Z" fill="black"/>
<path d="M130.781 77.8865L107.663 141.835C104.729 143.176 101.66 144.196 98.5078 144.876C98.6384 143.762 98.9077 142.67 99.3094 141.623L136.941 37.4649C140.4 28.1303 142.087 28.1303 143.437 28.1303C144.787 28.1303 146.137 28.5105 146.137 31.6361C145.608 36.3334 144.4 40.9289 142.552 45.2789L141.244 48.7002L153.9 53.3041L154.913 50.263C157.448 44.0849 158.876 37.5079 159.131 30.8336C159.281 26.6368 157.764 22.5515 154.913 19.4716C153.488 18.0536 151.785 16.9463 149.912 16.2193C148.039 15.4924 146.035 15.1616 144.028 15.2478C141.742 15.1714 139.466 15.5883 137.355 16.4701C135.244 17.3519 133.348 18.6781 131.794 20.3586C127.665 25.3349 124.555 31.0755 122.639 37.2537L86.4844 137.231C83.7844 144.791 83.6578 150.662 86.1891 154.126C87.0655 155.308 88.2232 156.251 89.5568 156.871C90.8904 157.491 92.3577 157.767 93.825 157.674C99.6891 157.674 102.937 153.999 109.898 145.974L119.137 149.268L143.437 82.4904L130.781 77.8865Z" fill="black"/>
<path d="M134.831 152.859L148.711 157.885L159.089 129.501L145.252 124.517L134.831 152.859Z" fill="black"/>
<path d="M193.809 135.541C190.35 144.918 188.663 144.918 187.313 144.918C185.963 144.918 184.612 144.496 184.612 141.412C185.139 136.696 186.361 132.084 188.241 127.727L220.894 37.4649C224.395 28.1304 226.083 28.1304 227.433 28.1304C228.783 28.1304 230.091 28.5105 230.091 31.6361C229.561 36.3334 228.353 40.9289 226.505 45.2789L225.239 48.7002L237.895 53.3041L238.908 50.263C241.44 44.0839 242.868 37.5075 243.127 30.8336C243.258 26.6398 241.743 22.5613 238.908 19.4716C237.478 18.0599 235.775 16.9566 233.903 16.2301C232.031 15.5036 230.03 15.1693 228.023 15.2479C225.736 15.163 223.458 15.576 221.346 16.4584C219.234 17.3407 217.338 18.6714 215.789 20.3586C211.63 25.3206 208.503 31.0648 206.592 37.2538L178.706 114.464C172.42 131.951 171.788 136.132 171.788 142.215C171.649 146.397 173.165 150.465 176.006 153.534C177.428 154.957 179.13 156.067 181.004 156.794C182.878 157.521 184.883 157.85 186.891 157.758C189.18 157.827 191.456 157.402 193.567 156.513C195.678 155.624 197.573 154.291 199.125 152.605C203.281 147.641 206.408 141.898 208.322 135.71L212.541 123.546L199.884 119.322L193.809 135.541Z" fill="black"/>
<path d="M324.127 37.4649C327.586 28.1304 329.273 28.1304 330.623 28.1304C331.973 28.1304 333.323 28.5105 333.323 31.6361C332.796 36.3386 331.574 40.9365 329.695 45.2789L328.43 48.7002L341.086 53.3041L342.141 50.263C344.676 44.0849 346.104 37.5079 346.359 30.8336C346.491 26.6398 344.976 22.5613 342.141 19.4716L341.381 18.7536L346.486 4.60392L333.872 0L328.303 15.5013C325.011 15.9616 321.943 17.438 319.528 19.7251C315.824 23.4314 313.073 27.9825 311.512 32.9877C306.661 46.4616 305.1 66.9469 303.75 86.9254C302.358 106.186 301.008 124.39 296.958 135.541C293.456 144.918 291.769 144.918 290.419 144.918C289.069 144.918 287.761 144.496 287.761 141.412C288.21 136.728 289.332 132.133 291.094 127.769L292.402 124.348L279.745 119.702L278.733 122.785C276.198 128.963 274.769 135.54 274.514 142.215C274.465 146.202 275.858 150.073 278.437 153.112L273.417 166.924L286.073 171.528L291.094 157.716C294.953 157.57 298.64 156.075 301.514 153.492C305.247 149.801 308.015 145.246 309.572 140.23C314.423 126.84 315.942 106.144 317.419 86.1651H316.659H317.419C318.727 66.8202 320.077 48.658 324.127 37.4649Z" fill="black"/>
<path d="M392.386 15.1634L368.803 80.2941H360.366L382.261 19.7673L369.647 15.1634L319.528 153.281L332.142 157.885L355.725 93.1344H364.163L342.309 153.281L354.923 157.885L405 19.7673L392.386 15.1634Z" fill="black"/>
<path d="M275.864 15.2056L215.156 153.239L227.812 157.843L255.108 93.1344H259.875L242.072 153.323L254.728 157.885L293.836 21.7947L275.864 15.2056ZM264.853 80.2518H259.453L279.45 31.4672L280.294 31.8051L265.106 80.2518H264.853Z" fill="black"/>
<path d="M45.7734 241.431L92.6859 238.644L378.844 208.739L378.169 196.364H0.675V208.739H171.492L336.952 205.36L211.866 213.766L0 235.898L0.295313 248.316L300.966 265L301.683 252.667L92.6859 241.051L45.7734 241.431Z" fill="black"/>
</g>
<defs>
<clipPath id="clip0_6_2">
<rect width="405" height="265" fill="white"/>
</clipPath>
</defs>
</svg>
