<svg width="139" height="143" viewBox="0 0 139 143" fill="none" xmlns="http://www.w3.org/2000/svg">
<path d="M79.3641 0.121155L68.3531 30.9125C62.5734 47.3853 56.0344 66.7724 46.7109 95.4941L67.8047 6.33011L50.7188 0.163393L0.726562 138.239L12.75 142.885L23.7188 112.136C29.4984 96.2966 35.6578 77.6698 45.3188 47.8499L24.225 136.549L41.1 142.758L91.5563 4.76731L79.3641 0.121155Z" fill="black"/>
<path d="M109.781 62.8865L86.6625 126.835C83.7295 128.176 80.6601 129.196 77.5078 129.876C77.6384 128.762 77.9077 127.67 78.3094 126.623L115.941 22.4649C119.4 13.1303 121.087 13.1303 122.437 13.1303C123.787 13.1303 125.137 13.5105 125.137 16.6361C124.608 21.3334 123.4 25.9289 121.552 30.2789L120.244 33.7002L132.9 38.3041L133.913 35.263C136.448 29.0849 137.876 22.5079 138.131 15.8336C138.281 11.6368 136.764 7.55152 133.913 4.4716C132.488 3.05359 130.785 1.94627 128.912 1.21935C127.039 0.492423 125.035 0.161638 123.028 0.247818C120.742 0.1714 118.466 0.588251 116.355 1.47008C114.244 2.35191 112.348 3.67808 110.794 5.35859C106.665 10.3349 103.555 16.0755 101.639 22.2537L65.4844 122.231C62.7844 129.791 62.6578 135.662 65.1891 139.126C66.0655 140.308 67.2232 141.251 68.5568 141.871C69.8904 142.491 71.3577 142.767 72.825 142.674C78.6891 142.674 81.9375 138.999 88.8984 130.974L98.1375 134.268L122.437 67.4904L109.781 62.8865Z" fill="black"/>
</svg>
